<?xml version="1.0" standalone="no"?>
<!DOCTYPE svg PUBLIC "-//W3C//DTD SVG 20010904//EN"
 "http://www.w3.org/TR/2001/REC-SVG-20010904/DTD/svg10.dtd">
<svg version="1.0" xmlns="http://www.w3.org/2000/svg"
 width="3071.000000pt" height="3071.000000pt" viewBox="0 0 3071.000000 3071.000000"
 preserveAspectRatio="xMidYMid meet">
<metadata>
Created by potrace 1.14, written by Peter Selinger 2001-2017
</metadata>
<g transform="translate(0.000000,3071.000000) scale(0.100000,-0.100000)"
fill="#000000" stroke="none">
<path d="M5643 28949 c-13 -5 -23 -6 -23 -3 0 2 -9 -3 -19 -13 -22 -21 -45
-73 -54 -123 -21 -109 -37 -171 -64 -250 -14 -41 -30 -78 -35 -81 -5 -3 -9 -8
-8 -10 7 -18 -91 -265 -139 -349 -5 -8 -22 -42 -38 -75 -53 -108 -85 -165 -92
-165 -4 0 -8 -6 -8 -13 0 -6 -12 -32 -27 -55 -28 -45 -46 -75 -106 -182 -20
-36 -49 -87 -65 -115 -99 -174 -208 -401 -246 -510 -8 -22 -17 -42 -20 -45
-11 -9 -68 -203 -104 -355 -44 -179 -40 -162 -60 -255 -9 -41 -18 -83 -21 -92
-2 -10 -6 -28 -9 -40 -11 -51 -39 -125 -58 -153 -19 -27 -53 -58 -67 -61 -3 0
-18 -6 -35 -13 -68 -29 -131 -8 -255 83 -51 37 -163 145 -201 193 -78 98 -119
154 -119 162 0 5 -4 11 -8 13 -12 4 -112 187 -112 204 0 8 -4 14 -8 14 -16 0
-88 204 -162 455 -5 17 -11 48 -14 70 -3 22 -8 51 -11 65 -3 14 -8 59 -10 100
-2 41 -7 98 -9 125 -3 28 -8 104 -11 170 -7 161 -18 285 -29 345 -3 14 -7 73
-10 131 -7 139 -21 173 -76 184 -39 8 -69 -11 -131 -82 -39 -44 -99 -209 -124
-338 -25 -129 -37 -195 -41 -225 -2 -19 -11 -71 -19 -115 -14 -77 -19 -114
-31 -235 -6 -61 -6 -349 0 -420 6 -84 17 -185 21 -210 2 -14 7 -47 10 -75 19
-153 82 -388 135 -502 11 -24 20 -45 20 -48 0 -7 83 -178 90 -185 3 -3 27 -37
53 -77 48 -72 85 -117 162 -199 22 -23 56 -59 76 -80 20 -22 63 -65 97 -97 64
-60 139 -147 128 -147 -4 0 -2 -6 4 -12 6 -7 23 -27 38 -45 32 -37 117 -177
150 -248 28 -60 125 -306 140 -355 20 -68 103 -336 127 -410 13 -41 47 -140
75 -220 28 -80 58 -165 67 -190 8 -25 19 -54 23 -65 5 -11 43 -108 86 -215 78
-200 86 -220 123 -302 11 -26 21 -51 21 -54 0 -11 256 -518 284 -562 14 -23
26 -44 26 -47 0 -16 320 -512 353 -547 7 -7 25 -31 41 -53 17 -22 33 -42 36
-45 3 -3 28 -32 55 -64 28 -32 71 -82 97 -109 26 -28 47 -52 45 -53 -10 -10
-269 62 -402 111 -55 20 -104 38 -110 39 -24 7 -137 53 -213 87 -35 16 -66 29
-70 29 -4 0 -45 20 -92 45 -47 24 -101 52 -120 61 -170 85 -544 388 -670 543
-19 24 -47 57 -63 74 -15 18 -39 50 -54 72 -16 22 -30 42 -33 45 -33 31 -260
402 -260 424 0 5 -6 17 -13 25 -8 9 -21 34 -30 56 -15 39 -69 156 -164 355
-25 52 -52 103 -61 113 -8 9 -13 17 -9 17 9 0 -161 298 -203 355 -102 138
-224 221 -285 193 -42 -19 -52 -69 -31 -163 7 -31 55 -196 60 -203 2 -4 7 -23
10 -42 3 -19 13 -62 22 -95 8 -33 17 -67 19 -75 1 -8 8 -33 14 -56 6 -22 12
-53 15 -70 2 -16 6 -36 9 -44 3 -8 13 -49 22 -90 9 -41 26 -106 37 -145 11
-38 21 -74 22 -80 2 -10 9 -32 76 -255 21 -69 55 -181 75 -250 75 -257 198
-558 274 -668 10 -15 35 -54 56 -87 21 -33 41 -62 44 -65 3 -3 22 -27 41 -55
19 -27 38 -51 42 -53 4 -2 8 -10 8 -17 0 -7 4 -15 10 -17 5 -1 34 -34 64 -71
112 -140 285 -324 377 -399 23 -18 55 -45 72 -60 18 -15 35 -28 38 -28 3 0 17
-9 30 -21 39 -35 514 -375 539 -386 8 -4 33 -19 54 -35 21 -15 45 -28 53 -28
7 0 13 -4 13 -9 0 -8 367 -195 502 -255 97 -43 368 -131 468 -152 14 -3 72
-16 130 -30 107 -26 226 -54 335 -79 81 -19 288 -64 350 -76 28 -6 60 -12 73
-15 13 -3 92 -18 175 -35 84 -16 181 -36 217 -44 36 -8 135 -28 220 -45 85
-16 185 -37 221 -45 36 -8 77 -16 90 -19 13 -3 39 -9 57 -15 17 -5 32 -7 32
-4 0 3 6 0 13 -6 8 -6 16 -9 19 -6 2 3 30 -2 60 -10 31 -8 67 -16 80 -19 88
-16 229 -50 290 -70 40 -13 134 -43 208 -66 233 -72 384 -121 405 -130 11 -5
40 -15 65 -21 25 -7 50 -16 55 -19 6 -4 22 -10 37 -14 15 -3 40 -11 55 -18 15
-6 33 -12 38 -14 26 -6 181 -68 191 -76 7 -5 21 -10 32 -13 11 -2 40 -13 65
-24 25 -12 49 -21 52 -21 3 0 31 -11 61 -25 30 -14 57 -25 60 -25 3 0 29 -11
57 -23 29 -13 138 -61 242 -107 105 -46 235 -103 290 -128 105 -48 753 -374
865 -436 36 -19 80 -42 98 -50 18 -9 46 -25 63 -36 16 -12 29 -18 29 -14 0 4
8 0 18 -8 9 -9 22 -17 27 -19 25 -10 150 -84 153 -91 2 -4 9 -8 16 -8 8 0 25
-9 39 -20 15 -12 30 -21 34 -22 8 -1 28 -12 95 -55 21 -12 40 -23 42 -23 3 0
48 -27 101 -60 53 -33 100 -60 106 -60 5 0 9 -4 9 -10 0 -5 4 -10 9 -10 12 0
213 -133 326 -215 44 -32 100 -72 124 -89 24 -17 51 -38 61 -46 9 -8 32 -26
51 -40 18 -14 47 -37 64 -52 l30 -26 -41 -59 c-48 -68 -76 -121 -103 -195 -20
-55 -37 -127 -33 -142 2 -4 -1 -13 -6 -20 -9 -13 -8 -135 2 -191 12 -62 16
-95 10 -95 -28 0 -106 64 -227 185 -80 80 -150 145 -156 145 -5 0 -26 10 -44
23 -19 13 -113 57 -208 97 -210 89 -255 113 -401 211 -260 176 -470 258 -870
339 -112 23 -212 43 -223 46 -11 2 -31 6 -45 9 -43 8 -338 85 -383 99 -23 8
-107 33 -187 56 -263 75 -1195 380 -1560 510 -175 62 -489 166 -540 179 -84
21 -105 23 -236 27 -150 4 -219 -11 -304 -66 -131 -84 -200 -211 -229 -420
-21 -156 19 -353 134 -650 18 -47 22 -58 75 -180 149 -346 465 -883 694 -1180
27 -36 63 -83 80 -105 17 -22 33 -42 36 -45 3 -3 34 -41 70 -85 153 -190 329
-384 469 -519 102 -98 100 -96 156 -141 28 -22 52 -42 55 -46 8 -8 151 -113
200 -146 131 -88 408 -233 444 -233 8 0 18 -4 21 -10 3 -5 12 -10 20 -10 8 0
64 -31 125 -70 61 -38 115 -70 119 -70 5 0 14 -7 21 -15 6 -8 15 -14 18 -13 4
1 50 -19 102 -44 171 -83 324 -141 445 -172 99 -24 270 -56 327 -60 29 -2 78
-7 108 -10 80 -8 177 -17 240 -21 91 -7 273 -26 385 -40 153 -19 308 -85 444
-187 117 -89 158 -128 172 -165 21 -56 78 -277 73 -285 -3 -4 0 -8 7 -8 7 0
10 -3 6 -6 -3 -4 3 -29 14 -58 11 -28 22 -58 23 -66 5 -20 73 -194 97 -247 10
-23 19 -44 19 -47 0 -3 20 -48 45 -100 25 -53 45 -98 45 -100 0 -2 8 -21 17
-42 9 -22 17 -41 18 -44 1 -3 7 -18 13 -33 7 -16 12 -30 12 -32 0 -2 5 -16 12
-32 6 -15 12 -30 13 -33 1 -3 12 -39 24 -80 26 -84 45 -156 56 -215 5 -22 10
-47 12 -55 5 -20 12 -63 18 -102 2 -18 7 -49 10 -68 19 -116 29 -513 14 -561
-11 -35 -18 -66 -25 -109 -6 -33 -4 -118 3 -155 8 -43 7 -539 -1 -750 -11
-258 -22 -458 -31 -530 -3 -22 -7 -69 -10 -105 -2 -36 -5 -65 -6 -65 -2 0 -7
-40 -13 -100 -2 -27 -7 -63 -10 -80 -3 -16 -8 -50 -11 -75 -3 -25 -8 -58 -11
-75 -10 -61 -13 -81 -19 -120 -3 -23 -8 -52 -10 -65 -3 -14 -8 -38 -10 -55 -6
-34 -35 -172 -40 -195 -7 -26 -56 -213 -66 -250 -5 -19 -12 -45 -14 -57 -3
-12 -10 -34 -15 -48 -5 -14 -7 -25 -4 -25 2 0 0 -9 -7 -21 -6 -12 -13 -37 -15
-57 -3 -20 -9 -41 -14 -47 -6 -7 -8 -14 -5 -16 2 -3 0 -22 -6 -43 -6 -21 -12
-46 -14 -55 -20 -103 -53 -197 -96 -279 -28 -53 -56 -103 -61 -109 -6 -7 -7
-13 -4 -13 4 0 2 -6 -4 -12 -6 -7 -50 -83 -98 -168 -49 -85 -128 -225 -176
-310 -49 -85 -98 -171 -108 -190 -42 -75 -212 -334 -282 -430 -25 -36 -54 -76
-64 -89 -9 -14 -45 -60 -79 -103 -35 -43 -63 -82 -63 -87 0 -5 -4 -11 -8 -13
-5 -1 -35 -34 -68 -73 -150 -178 -274 -307 -548 -570 -104 -99 -205 -196 -225
-215 -91 -87 -388 -341 -479 -408 -12 -9 -28 -22 -35 -27 -6 -6 -79 -60 -162
-120 -82 -60 -187 -139 -232 -175 -45 -36 -114 -86 -155 -111 -77 -50 -259
-183 -318 -234 -44 -37 -212 -206 -265 -266 -87 -98 -246 -321 -313 -439 -11
-19 -35 -62 -54 -95 -18 -33 -40 -75 -47 -93 -7 -17 -17 -32 -22 -32 -5 0 -9
-6 -9 -13 0 -7 -13 -39 -29 -72 -51 -106 -113 -240 -116 -250 -1 -5 -12 -32
-24 -60 -121 -269 -258 -649 -286 -796 -2 -10 -6 -23 -9 -27 -3 -5 -7 -19 -9
-33 -3 -13 -10 -44 -17 -69 -13 -46 -15 -57 -25 -125 -3 -22 -10 -67 -16 -100
-6 -33 -11 -82 -11 -110 0 -27 -11 -88 -25 -135 -13 -47 -26 -92 -27 -100 -6
-28 -16 -85 -21 -125 -4 -22 -8 -47 -11 -56 -2 -9 -7 -32 -9 -50 -11 -76 -56
-243 -105 -383 -78 -224 -100 -357 -115 -681 -5 -116 -9 -179 -20 -335 -14
-187 -23 -380 -26 -590 l-2 -145 8514 0 8514 0 -1 240 c-1 217 -6 346 -19 505
-9 118 -16 220 -20 331 -9 234 -34 437 -66 537 -6 18 -12 39 -13 45 -2 7 -6
19 -9 27 -3 8 -11 33 -17 55 -6 22 -15 49 -20 60 -49 116 -69 194 -116 465 -8
47 -28 135 -43 195 -16 61 -30 134 -30 164 -1 29 -6 73 -11 97 -6 24 -9 47 -8
51 2 11 -10 75 -30 158 -9 39 -17 75 -18 80 0 6 -8 35 -18 66 -9 31 -18 65
-21 75 -6 32 -64 222 -81 267 -18 46 -50 131 -63 162 -5 11 -28 67 -52 125
-23 58 -53 128 -66 157 -13 28 -23 54 -23 56 0 14 -175 376 -228 472 -81 147
-258 415 -274 415 -4 0 -8 6 -8 14 0 8 -3 16 -7 18 -5 2 -33 32 -63 68 -79 92
-224 238 -300 301 -106 89 -301 225 -355 248 -77 34 -155 75 -155 81 0 3 -24
24 -52 45 -29 22 -55 42 -58 45 -3 3 -13 10 -22 15 -59 35 -404 300 -482 370
-6 6 -41 36 -77 67 -36 32 -109 99 -161 150 -53 51 -176 170 -273 263 -233
223 -362 354 -465 475 -12 14 -32 36 -44 50 -12 14 -50 60 -83 102 -33 42 -70
86 -81 99 -12 12 -19 26 -16 31 3 4 1 8 -5 8 -5 0 -32 30 -58 68 -26 37 -51
72 -56 77 -36 45 -96 135 -90 135 5 0 3 4 -3 8 -15 10 -114 159 -114 172 0 5
-3 10 -8 10 -4 0 -18 21 -32 48 -13 26 -27 49 -30 52 -5 5 -9 12 -52 89 -11
20 -47 83 -80 140 -33 57 -74 129 -90 160 -17 31 -35 61 -39 67 -5 6 -25 42
-45 80 -21 38 -40 71 -43 74 -3 3 -17 25 -30 50 -13 25 -48 91 -77 148 -31 58
-63 137 -74 180 -10 42 -30 122 -44 177 -14 55 -27 111 -30 125 -3 14 -15 59
-26 100 -11 41 -23 82 -25 90 -10 36 -56 216 -60 234 -10 46 -27 122 -31 146
-2 14 -6 34 -9 45 -2 11 -7 43 -11 70 -3 28 -8 53 -10 57 -2 3 -7 28 -10 55
-3 26 -7 55 -9 63 -2 8 -7 41 -10 73 -4 32 -8 68 -11 80 -2 12 -7 42 -10 67
-3 25 -7 56 -9 70 -8 44 -20 196 -30 350 -2 41 -7 111 -9 155 -12 170 -17 324
-21 619 -2 168 -5 309 -7 313 -6 12 -12 234 -12 458 0 210 11 409 28 485 3 13
8 42 11 65 3 22 9 49 12 60 3 11 8 29 9 40 2 11 8 40 15 65 6 25 12 50 13 55
13 55 84 259 116 330 9 22 37 85 60 140 24 55 47 104 52 110 4 5 8 15 8 22 0
6 13 40 29 75 25 54 88 221 95 253 5 25 51 167 77 240 16 44 36 105 45 135 21
68 28 77 139 160 134 101 292 167 445 185 30 4 66 8 80 10 53 7 128 15 195 21
39 3 88 7 110 9 22 2 74 7 115 10 102 7 264 24 300 30 8 1 35 6 60 10 58 9
260 56 290 68 8 3 42 15 75 27 179 64 396 169 528 256 61 40 119 70 247 124
172 74 488 268 570 350 3 3 30 25 60 50 121 99 279 257 425 425 28 32 59 67
70 79 65 70 294 361 391 497 399 558 754 1287 818 1684 13 77 14 192 2 245 -3
14 -9 41 -12 60 -4 19 -20 71 -37 114 -25 67 -40 90 -99 148 -73 74 -139 111
-224 128 -66 12 -284 5 -364 -13 -62 -14 -301 -89 -345 -107 -52 -23 -407
-145 -870 -299 -456 -151 -631 -207 -845 -270 -36 -11 -103 -31 -150 -45 -304
-89 -537 -147 -734 -180 -357 -61 -660 -179 -915 -357 -120 -84 -172 -111
-380 -199 -213 -90 -290 -140 -410 -267 -137 -144 -215 -203 -206 -155 4 23
15 108 19 155 4 49 -17 189 -39 252 -23 67 -99 212 -131 252 l-25 31 78 59
c43 32 82 64 86 70 4 7 15 13 22 13 8 0 15 3 15 8 1 4 30 27 66 52 36 25 77
55 92 68 15 12 35 25 45 28 9 3 17 10 17 15 0 5 4 9 9 9 4 0 51 28 102 63 94
62 224 143 289 180 19 10 40 23 45 27 6 4 26 17 45 28 88 50 216 123 230 132
33 20 270 151 355 195 102 53 105 54 160 84 22 12 164 83 315 159 277 139 325
162 590 279 80 35 163 72 185 82 22 10 81 35 130 55 94 39 140 59 189 82 16 8
33 14 37 14 5 0 33 11 63 25 30 14 58 25 63 25 7 0 68 24 168 65 17 7 89 31
160 55 72 23 139 45 150 50 11 5 88 30 170 55 83 26 168 53 190 60 33 11 154
49 310 96 17 5 48 11 70 14 22 4 65 13 95 20 59 15 449 101 494 109 14 3 34 7
44 10 9 3 33 7 52 10 19 3 103 19 185 36 83 17 209 42 280 56 200 39 539 112
645 139 52 13 106 26 120 29 14 2 57 12 95 21 39 9 81 19 95 22 126 23 436
123 558 180 73 34 121 55 132 58 12 3 226 111 230 116 3 3 21 13 40 22 77 38
373 236 614 412 12 8 46 33 76 55 30 22 60 43 65 47 21 17 121 99 149 123 71
61 249 248 311 326 17 21 42 51 57 67 15 15 26 29 25 31 -1 2 12 19 28 38 17
18 41 50 55 70 14 21 28 38 33 38 4 0 7 4 7 9 0 5 24 45 52 88 59 87 76 117
108 186 12 26 26 47 30 47 3 0 7 6 8 13 0 6 23 66 50 132 48 118 104 281 137
400 10 33 20 67 23 75 3 8 6 20 7 25 2 6 12 42 25 80 35 114 71 238 76 264 3
13 9 31 13 40 7 14 45 158 57 214 2 10 5 26 8 35 3 9 7 28 10 42 2 14 12 57
21 95 22 93 20 83 55 220 17 66 32 127 34 136 3 9 11 36 19 60 14 42 21 72 33
147 7 43 -13 91 -42 102 -89 34 -258 -122 -384 -355 -24 -44 -54 -100 -68
-125 -52 -92 -154 -296 -158 -314 -2 -11 -8 -22 -12 -25 -5 -3 -13 -17 -17
-31 -15 -49 -184 -386 -224 -448 -23 -34 -41 -67 -41 -72 0 -6 -4 -10 -10 -10
-5 0 -10 -5 -10 -10 0 -6 -4 -16 -10 -23 -5 -7 -40 -55 -77 -107 -130 -186
-249 -317 -408 -450 -135 -111 -136 -113 -166 -132 -14 -9 -32 -23 -40 -30
-42 -39 -392 -245 -407 -238 -1 1 -22 -7 -45 -18 -23 -11 -60 -27 -82 -36 -22
-10 -49 -21 -60 -26 -102 -47 -449 -161 -535 -176 -14 -3 -40 -9 -59 -14 -19
-5 -36 -8 -38 -7 -1 2 19 26 45 54 78 85 154 175 197 231 5 7 17 21 25 31 8 9
29 37 45 61 17 25 36 51 43 58 6 7 12 20 12 28 0 8 5 14 10 14 6 0 14 8 18 18
4 9 38 64 76 122 245 373 482 864 698 1445 43 116 154 431 172 490 8 28 34
111 56 185 79 255 153 460 205 560 9 17 14 32 13 34 -2 2 4 12 12 22 9 11 22
32 30 48 21 42 164 245 199 281 15 17 52 53 82 81 51 48 141 143 219 230 20
21 51 61 70 89 19 27 40 55 45 61 6 6 19 28 30 50 11 21 25 42 30 46 7 5 7 8
0 8 -6 0 -6 3 0 8 10 6 95 185 99 207 1 6 12 37 25 70 13 33 25 67 27 75 2 8
12 49 23 90 11 41 23 91 26 110 3 20 7 45 9 55 2 11 6 38 10 60 5 37 8 59 21
163 28 235 19 601 -20 792 -3 14 -8 43 -11 65 -7 46 -11 72 -17 100 -2 11 -7
36 -11 55 -3 19 -8 46 -11 60 -3 14 -8 40 -11 59 -9 55 -63 231 -83 270 -11
20 -19 39 -20 43 -2 14 -86 90 -108 98 -47 19 -97 -10 -108 -61 -4 -16 -8 -61
-10 -99 -3 -71 -13 -173 -20 -220 -5 -31 -15 -154 -20 -240 -17 -321 -24 -414
-40 -490 -3 -14 -7 -36 -10 -50 -12 -61 -88 -308 -104 -339 -6 -10 -7 -21 -4
-25 3 -3 1 -6 -5 -6 -7 0 -12 -7 -12 -15 0 -9 -8 -30 -17 -48 -9 -18 -18 -34
-18 -37 -13 -49 -107 -208 -191 -321 -121 -162 -238 -270 -379 -349 -71 -40
-163 -21 -227 47 -28 29 -71 127 -61 137 3 3 1 11 -4 18 -6 7 -16 42 -23 78
-7 36 -25 117 -41 182 -16 64 -30 125 -32 135 -18 92 -60 237 -99 338 -22 55
-40 105 -42 110 -13 51 -160 347 -237 481 -33 55 -59 106 -59 112 0 7 -4 12
-9 12 -5 0 -15 16 -22 35 -7 19 -17 35 -21 35 -4 0 -8 5 -8 11 0 6 -8 23 -19
37 -10 15 -31 50 -45 77 -15 28 -36 64 -47 80 -21 34 -39 72 -39 85 0 5 -3 10
-8 12 -11 5 -115 221 -147 308 -16 43 -24 64 -44 113 -22 53 -42 112 -39 118
2 3 -3 13 -10 21 -7 9 -15 24 -17 34 -53 251 -56 263 -79 296 -22 32 -74 48
-106 34 -22 -9 -67 -50 -95 -88 -10 -13 -39 -104 -52 -163 -13 -65 -11 -458 3
-540 8 -44 17 -96 20 -115 8 -52 13 -83 18 -105 36 -169 55 -241 91 -350 57
-170 118 -338 144 -397 11 -27 17 -48 13 -48 -4 0 -2 -4 3 -8 6 -4 16 -25 23
-47 7 -22 17 -49 22 -60 81 -178 282 -806 310 -965 7 -42 31 -189 44 -270 24
-149 26 -617 2 -735 -2 -11 -7 -40 -10 -65 -3 -25 -11 -72 -17 -105 -6 -33
-12 -67 -13 -75 -6 -41 -41 -175 -68 -260 -17 -52 -31 -99 -33 -105 -1 -5 -5
-19 -10 -30 -50 -131 -69 -185 -67 -195 0 -3 -3 -9 -8 -15 -5 -5 -22 -46 -40
-90 -72 -183 -142 -320 -278 -545 -103 -170 -138 -225 -157 -244 -9 -8 -15
-17 -13 -18 3 -4 -202 -282 -249 -338 -7 -8 -34 -42 -60 -75 -26 -33 -50 -62
-53 -65 -3 -3 -27 -33 -53 -67 -26 -34 -53 -68 -60 -75 -18 -20 -98 -117 -155
-190 l-30 -38 3 143 c2 78 0 169 -5 202 -15 110 -19 130 -24 155 -4 14 -9 38
-12 54 -2 16 -7 32 -9 36 -2 3 -6 17 -9 31 -5 26 -32 110 -65 199 -54 150
-200 440 -299 595 -43 67 -185 268 -207 291 -5 6 -39 44 -75 84 -99 111 -141
152 -257 246 -32 26 -60 50 -63 53 -3 3 -36 30 -75 59 -84 65 -158 128 -237
203 -33 31 -69 66 -81 76 -57 52 -227 247 -227 262 0 6 -4 11 -9 11 -13 0
-101 138 -122 193 -6 15 -16 27 -22 27 -6 0 -8 3 -4 6 3 3 -2 20 -12 37 -10
18 -24 50 -31 72 -38 117 -82 168 -149 171 -51 2 -75 -24 -106 -111 -17 -49
-23 -195 -11 -275 12 -86 65 -263 103 -350 92 -205 196 -391 293 -525 35 -47
139 -199 275 -400 63 -93 185 -284 185 -291 0 -1 14 -23 30 -47 17 -25 30 -49
30 -55 0 -5 7 -15 15 -22 9 -7 13 -15 10 -18 -3 -3 2 -16 10 -28 39 -60 148
-364 161 -448 3 -22 8 -44 10 -48 18 -28 26 -354 11 -453 -17 -113 -16 -113
-48 -237 -5 -23 -14 -47 -19 -53 -4 -5 -9 -14 -9 -20 -4 -43 -144 -394 -204
-510 -53 -102 -244 -360 -342 -462 -135 -140 -178 -183 -222 -220 -27 -24 -63
-54 -79 -68 -36 -31 -29 -27 -140 -102 -80 -53 -278 -173 -288 -173 -2 0 -50
-22 -107 -49 -57 -27 -149 -68 -204 -90 -55 -23 -109 -47 -120 -52 -12 -6 -27
-11 -35 -13 -8 -2 -22 -6 -30 -9 -29 -11 -205 -67 -215 -68 -5 -1 -17 -5 -26
-10 -9 -4 -27 -10 -40 -13 -13 -3 -134 -39 -269 -81 -259 -82 -365 -114 -390
-120 -139 -31 -627 -206 -718 -257 -18 -10 -39 -18 -46 -18 -8 0 -16 -3 -18
-7 -1 -5 -32 -23 -68 -41 -36 -18 -92 -48 -125 -67 -33 -19 -68 -38 -77 -41
-10 -4 -18 -10 -18 -15 0 -5 -5 -9 -11 -9 -6 0 -29 -13 -52 -29 -58 -39 -91
-56 -82 -42 7 12 37 109 60 196 8 28 21 75 29 105 8 30 17 66 19 80 3 14 14
64 26 112 26 111 50 235 66 343 3 17 7 41 9 55 5 23 11 67 21 150 4 33 8 72
20 187 12 115 7 279 -11 403 -3 19 -7 49 -9 65 -2 17 -18 84 -35 149 -70 272
-124 400 -204 491 -42 49 -44 49 -103 50 -54 0 -62 -3 -86 -30 -39 -45 -75
-152 -92 -275 -11 -79 -16 -109 -36 -218 -10 -59 -21 -118 -23 -132 -13 -73
-18 -99 -27 -135 -5 -22 -12 -51 -15 -65 -10 -52 -77 -281 -130 -449 -47 -146
-76 -224 -149 -406 -4 -11 -9 -24 -10 -30 -3 -10 -45 -102 -111 -242 -19 -40
-34 -76 -33 -79 0 -4 -3 -10 -8 -13 -4 -3 -18 -26 -31 -51 -20 -40 -64 -122
-103 -190 -8 -14 -20 -33 -28 -42 -8 -10 -10 -18 -5 -18 5 0 4 -4 -2 -8 -6 -4
-28 -34 -50 -67 -51 -79 -162 -234 -222 -311 -212 -274 -582 -660 -789 -826
-23 -18 -58 -46 -79 -63 -94 -76 -94 -76 -237 -80 -73 -2 -150 -6 -172 -8
-132 -15 -164 -20 -220 -38 -35 -10 -68 -26 -75 -34 -7 -8 -16 -12 -21 -9 -5
3 -9 0 -9 -5 0 -6 -7 -11 -15 -11 -8 0 -15 -4 -15 -10 0 -9 -66 -48 -84 -48
-5 0 -12 -4 -15 -9 -19 -28 -378 -158 -409 -149 -10 3 -31 8 -47 10 -17 2 -46
7 -65 10 -110 19 -184 23 -355 21 -104 -1 -201 -5 -215 -9 -14 -3 -41 -8 -60
-11 -19 -2 -47 -7 -62 -10 -16 -3 -40 -7 -55 -10 -31 -5 -344 93 -363 114 -3
3 -12 7 -20 9 -17 4 -153 82 -160 93 -19 26 -140 72 -225 84 -110 16 -161 23
-175 24 -128 3 -265 13 -278 20 -28 15 -192 148 -276 224 -191 172 -470 471
-629 671 -26 34 -53 68 -60 76 -18 23 -108 147 -159 220 -104 150 -264 439
-353 640 -37 85 -124 296 -129 315 -2 6 -9 24 -16 40 -7 17 -14 32 -15 35 0 3
-25 78 -54 167 -29 89 -54 168 -55 175 -2 7 -5 20 -8 28 -34 100 -86 304 -103
405 -2 11 -13 70 -24 130 -27 149 -32 175 -36 210 -38 303 -111 414 -239 361
-18 -8 -46 -31 -62 -52 -16 -22 -32 -41 -35 -44 -27 -21 -114 -256 -155 -415
-4 -16 -8 -34 -10 -40 -13 -52 -34 -161 -39 -210 -4 -33 -9 -73 -11 -90 -10
-61 -3 -308 11 -395 2 -14 6 -50 10 -80 3 -30 10 -86 16 -125 5 -38 11 -84 13
-102 3 -18 7 -36 9 -40 3 -4 8 -33 12 -63 4 -30 16 -93 26 -140 11 -47 26
-115 34 -151 7 -36 26 -108 40 -160 14 -52 33 -119 41 -149 8 -30 21 -72 29
-93 l15 -38 -32 18 c-18 10 -35 21 -38 24 -3 3 -41 26 -85 52 -44 26 -87 51
-95 56 -69 42 -267 138 -365 179 -136 56 -156 64 -170 68 -5 1 -41 14 -80 27
-38 14 -117 40 -175 57 -58 18 -112 34 -120 37 -8 4 -19 7 -25 8 -41 10 -241
70 -285 86 -30 11 -64 22 -75 24 -10 3 -62 18 -115 34 -52 17 -153 48 -225 70
-71 21 -150 47 -175 55 -25 9 -53 19 -63 21 -33 7 -61 17 -102 35 -22 10 -79
34 -127 54 -157 66 -319 143 -418 200 -25 14 -52 29 -60 33 -8 3 -17 9 -20 13
-3 3 -33 23 -67 45 -35 22 -63 43 -63 48 0 4 -6 7 -13 7 -7 0 -22 8 -33 18
-10 9 -35 29 -54 44 -113 86 -327 304 -425 433 -24 33 -49 65 -54 71 -107 131
-179 255 -256 444 -115 280 -157 414 -186 580 -14 81 -18 356 -6 430 3 25 9
61 12 80 6 37 32 135 42 160 3 8 8 23 10 34 2 10 14 46 28 80 14 35 25 66 25
70 0 18 105 223 165 321 92 151 237 369 247 373 4 2 8 8 8 14 0 5 20 37 45 69
25 33 45 61 45 64 0 5 91 138 100 145 3 3 19 26 35 52 17 27 33 48 38 48 4 0
7 4 7 10 0 5 15 33 33 62 19 29 53 89 77 133 23 44 47 86 53 93 5 6 7 12 4 12
-3 0 8 27 24 60 16 33 29 62 29 64 0 2 8 21 17 42 9 22 17 41 18 44 1 3 10 32
20 65 10 33 20 65 21 70 1 6 7 31 13 58 17 74 22 111 23 184 3 148 -28 240
-89 271 -38 19 -38 19 -75 -2 -47 -27 -69 -57 -97 -131 -43 -116 -142 -302
-187 -350 -13 -14 -24 -29 -24 -33 0 -4 -8 -15 -17 -24 -10 -8 -29 -31 -43
-49 -27 -36 -281 -294 -340 -344 -19 -17 -55 -46 -80 -65 -25 -19 -54 -42 -65
-52 -11 -9 -73 -60 -138 -113 -65 -53 -135 -113 -155 -134 -120 -124 -164
-177 -318 -386 -82 -112 -220 -361 -309 -560 -15 -33 -31 -69 -36 -80 -25 -56
-79 -223 -99 -306 -36 -152 -48 -265 -45 -421 l2 -147 -29 37 c-17 20 -42 52
-56 71 -15 18 -34 41 -42 51 -37 43 -91 110 -139 170 -28 36 -57 72 -65 81 -7
8 -46 58 -87 110 -40 52 -77 99 -82 104 -35 43 -207 286 -207 293 0 5 -9 17
-20 27 -11 10 -17 21 -15 25 3 5 2 10 -2 12 -11 4 -63 86 -63 98 0 5 -4 10
-10 10 -5 0 -10 7 -10 15 0 8 -4 15 -10 15 -5 0 -10 4 -10 10 0 5 -14 33 -31
62 -88 148 -162 297 -219 438 -12 30 -29 71 -37 90 -29 67 -92 243 -118 330
-1 3 -5 12 -8 20 -7 16 -45 156 -52 187 -2 10 -10 47 -18 83 -9 36 -18 85 -22
110 -3 25 -8 56 -10 70 -32 170 -38 635 -11 800 2 14 7 47 11 73 4 27 8 57 10
67 2 9 6 33 9 51 3 19 8 43 10 54 2 11 12 56 21 100 23 107 20 97 56 210 17
55 37 120 44 145 18 59 82 249 94 275 5 11 23 61 41 110 32 89 69 187 134 355
18 47 38 101 45 120 7 19 34 97 61 174 45 125 93 297 106 372 2 16 7 40 10 54
8 37 24 129 30 175 3 22 9 54 13 70 8 31 7 444 -2 500 -14 97 -52 189 -89 220
-48 40 -80 54 -105 44z m12904 -18481 c2 -17 0 -19 -7 -8 -5 8 -6 18 -4 22 8
12 10 10 11 -14z m8 -103 c3 -38 9 -74 13 -80 3 -5 -1 -4 -9 2 -10 8 -16 32
-18 64 -1 27 -2 53 -2 57 -1 4 -1 13 0 21 2 31 9 3 16 -64z"/>
</g>
</svg>
